# xmcd CD database file
#
# Track frame offsets:
#	183
#	13503
#	30255
#	50805
#	67210
#	85420
#	101413
#	116545
#	138908
#	162815
#	177283
#
# Disc length: 2676 seconds
#
# Revision: 1
# Processed by: cddbd v1.4PL0 Copyright (c) Steve Scherf et al.
# Submitted via: CDex 1.50
#
DISCID=8b0a720b
DTITLE=Bill Thomas - Preacher's son
DYEAR=1994
DGENRE=Blues
TTITLE0=Can't do without you
TTITLE1=Roch me
TTITLE2=I don't walh, itake the Train
TTITLE3=You belong to me
TTITLE4=Preacher's Son
TTITLE5=This is madness
TTITLE6=Can't be saved
TTITLE7=Happiness don't mean a thing
TTITLE8=Suzie Q
TTITLE9=Come bach Baby
TTITLE10=Boogie
EXTD=YEAR: 1994
EXTT0=
EXTT1=
EXTT2=
EXTT3=
EXTT4=
EXTT5=
EXTT6=
EXTT7=
EXTT8=
EXTT9=
EXTT10=
PLAYORDER=
